<?xml version="1.0" encoding="UTF-8"?>
<svg id="Layer_1" data-name="Layer 1" xmlns="http://www.w3.org/2000/svg" viewBox="0 0 1884.5 936.78">
  <defs>
    <style>
      .cls-1 {
        stroke: #000;
        stroke-miterlimit: 10;
        stroke-width: 5px;
      }

      .cls-1, .cls-2 {
        fill: none;
      }
    </style>
  </defs>
  <line class="cls-2" x1="220.67" y1="213.07" x2="2.76" y2="422.07"/>
  <line class="cls-2" x1="2.63" y1="212.8" x2="2.76" y2="422.07"/>
  <line class="cls-1" x1="220.37" y1="62.41" x2="220.67" y2="213.07"/>
  <line class="cls-1" x1="220.67" y1="213.07" x2="2.76" y2="410.41"/>
  <line class="cls-1" x1="2.63" y1="212.8" x2="2.76" y2="410.41"/>
  <line class="cls-1" x1="159.26" y1="268.32" x2="159.26" y2="411.07"/>
  <line class="cls-1" x1="2.76" y1="410.41" x2="159.26" y2="411.07"/>
  <line class="cls-1" x1="159.17" y1="408.99" x2="159.17" y2="551.74"/>
  <line class="cls-1" x1="1.87" y1="410.12" x2="159.17" y2="551.74"/>
  <line class="cls-1" x1="159.42" y1="410.74" x2="328.67" y2="411.07"/>
  <line class="cls-1" x1="328.67" y1="411.07" x2="159.12" y2="551.01"/>
  <line class="cls-1" x1="159.17" y1="551.74" x2="331.01" y2="548.58"/>
  <line class="cls-1" x1="331.01" y1="548.58" x2="449.01" y2="683.07"/>
  <line class="cls-1" x1="327.01" y1="548.57" x2="328.67" y2="812.07"/>
  <line class="cls-1" x1="449.01" y1="683.07" x2="328.67" y2="812.07"/>
  <line class="cls-1" x1="328.67" y1="812.07" x2="449.01" y2="810.07"/>
  <line class="cls-1" x1="449.01" y1="680.07" x2="449.01" y2="807.07"/>
  <line class="cls-1" x1="449.01" y1="807.07" x2="328.67" y2="935.07"/>
  <line class="cls-1" x1="328.67" y1="812.07" x2="328.67" y2="935.07"/>
  <line class="cls-1" x1="159.26" y1="809.57" x2="159.26" y2="930.57"/>
  <line class="cls-1" x1="328.67" y1="812.07" x2="159.26" y2="809.57"/>
  <line class="cls-1" x1="328.67" y1="930.57" x2="159.26" y2="930.57"/>
  <line class="cls-1" x1="159.26" y1="809.57" x2="328.67" y2="930.57"/>
  <line class="cls-1" x1="2.76" y1="930.57" x2="159.26" y2="809.57"/>
  <line class="cls-1" x1="159.26" y1="930.57" x2="2.76" y2="930.57"/>
  <line class="cls-1" x1="328.67" y1="411.07" x2="449.01" y2="548.57"/>
  <line class="cls-1" x1="449.01" y1="683.07" x2="449.01" y2="548.57"/>
  <line class="cls-1" x1="328.67" y1="411.07" x2="327.01" y2="548.57"/>
  <line class="cls-1" x1="449.01" y1="548.57" x2="327.01" y2="548.57"/>
  <g>
    <line class="cls-1" x1="483.11" y1="63.57" x2="598.61" y2="63.57"/>
    <line class="cls-1" x1="483.11" y1="63.57" x2="483.11" y2="932.07"/>
    <line class="cls-1" x1="598.61" y1="63.57" x2="598.61" y2="932.07"/>
    <line class="cls-1" x1="598.61" y1="932.07" x2="483.11" y2="932.07"/>
    <line class="cls-1" x1="787.6" y1="64.07" x2="903.09" y2="64.07"/>
    <line class="cls-1" x1="787.6" y1="64.07" x2="787.6" y2="932.57"/>
    <line class="cls-1" x1="903.09" y1="64.07" x2="903.09" y2="932.57"/>
    <line class="cls-1" x1="903.09" y1="932.57" x2="787.6" y2="932.57"/>
    <line class="cls-1" x1="598.61" y1="428.17" x2="787.6" y2="428.17"/>
    <line class="cls-1" x1="598.61" y1="530.16" x2="787.6" y2="530.16"/>
    <line class="cls-1" x1="483.11" y1="63.57" x2="598.61" y2="200.18"/>
    <line class="cls-1" x1="598.61" y1="200.18" x2="483.11" y2="324.67"/>
    <line class="cls-1" x1="483.11" y1="324.67" x2="598.61" y2="428.17"/>
    <line class="cls-1" x1="598.61" y1="428.17" x2="483.11" y2="530.16"/>
    <line class="cls-1" x1="483.11" y1="530.16" x2="598.61" y2="680.9"/>
    <line class="cls-1" x1="598.61" y1="680.9" x2="483.11" y2="801.65"/>
    <line class="cls-1" x1="483.11" y1="801.65" x2="598.61" y2="932.07"/>
    <line class="cls-1" x1="903.09" y1="64.07" x2="787.6" y2="200.18"/>
    <line class="cls-1" x1="787.6" y1="200.18" x2="903.09" y2="324.67"/>
    <line class="cls-1" x1="903.09" y1="324.67" x2="787.6" y2="428.17"/>
    <line class="cls-1" x1="787.6" y1="428.17" x2="903.09" y2="530.16"/>
    <line class="cls-1" x1="903.09" y1="530.16" x2="787.6" y2="680.9"/>
    <line class="cls-1" x1="787.6" y1="680.9" x2="903.09" y2="801.65"/>
    <line class="cls-1" x1="903.09" y1="801.65" x2="787.6" y2="932.57"/>
  </g>
  <line class="cls-1" x1="1206.67" y1="63.57" x2="923.94" y2="932.07"/>
  <line class="cls-1" x1="1206.67" y1="63.57" x2="1489.41" y2="932.07"/>
  <line class="cls-1" x1="1206.67" y1="280.55" x2="1115.92" y2="555.78"/>
  <line class="cls-1" x1="1297.42" y1="555.78" x2="1206.67" y2="280.55"/>
  <line class="cls-1" x1="1115.92" y1="555.78" x2="1297.42" y2="555.78"/>
  <line class="cls-1" x1="923.94" y1="932.07" x2="989.93" y2="932.07"/>
  <line class="cls-1" x1="1423.4" y1="932.06" x2="1489.39" y2="932.06"/>
  <line class="cls-1" x1="1079.15" y1="655.03" x2="988.41" y2="930.27"/>
  <line class="cls-1" x1="1422.38" y1="933.27" x2="1331.64" y2="658.03"/>
  <line class="cls-1" x1="1079.15" y1="655.03" x2="1331.64" y2="658.03"/>
  <line class="cls-1" x1="923.94" y1="932.07" x2="1020" y2="831.57"/>
  <line class="cls-1" x1="1020" y1="831.57" x2="993" y2="715.57"/>
  <line class="cls-1" x1="1489.39" y1="932.06" x2="1388" y2="831.57"/>
  <line class="cls-1" x1="1388" y1="831.57" x2="1417" y2="715.57"/>
  <line class="cls-1" x1="993" y1="715.57" x2="1079.15" y2="655.03"/>
  <line class="cls-1" x1="1417" y1="715.57" x2="1331.64" y2="658.03"/>
  <line class="cls-1" x1="1367" y1="555.78" x2="1331.64" y2="658.03"/>
  <line class="cls-1" x1="1079.15" y1="655.03" x2="1045" y2="555.78"/>
  <line class="cls-1" x1="1045" y1="555.78" x2="1115.92" y2="555.78"/>
  <line class="cls-1" x1="1297.42" y1="555.78" x2="1367" y2="555.78"/>
  <line class="cls-1" x1="1115.92" y1="555.78" x2="1079.15" y2="655.03"/>
  <line class="cls-1" x1="1297.42" y1="555.78" x2="1331.64" y2="658.03"/>
  <line class="cls-1" x1="1297.42" y1="555.78" x2="1268" y2="656.07"/>
  <line class="cls-1" x1="1268" y1="656.07" x2="1206.67" y2="555.78"/>
  <line class="cls-1" x1="1206.67" y1="555.78" x2="1160" y2="657.07"/>
  <line class="cls-1" x1="1160" y1="657.07" x2="1115.92" y2="555.78"/>
  <line class="cls-1" x1="1045" y1="555.78" x2="1148" y2="464.07"/>
  <line class="cls-1" x1="1148" y1="464.07" x2="1113" y2="346.07"/>
  <line class="cls-1" x1="1113" y1="346.07" x2="1206.67" y2="280.55"/>
  <line class="cls-1" x1="1367" y1="555.78" x2="1267" y2="464.07"/>
  <line class="cls-1" x1="1267" y1="464.07" x2="1301" y2="346.07"/>
  <line class="cls-1" x1="1301" y1="346.07" x2="1206.67" y2="280.55"/>
  <line class="cls-1" x1="1206.67" y1="280.55" x2="1251" y2="200.57"/>
  <line class="cls-1" x1="1206.67" y1="280.55" x2="1163" y2="200.57"/>
  <line class="cls-1" x1="1163" y1="200.57" x2="1251" y2="200.57"/>
  <line class="cls-1" x1="1511" y1="932.07" x2="1607" y2="932.07"/>
  <line class="cls-1" x1="1511" y1="932.07" x2="1511" y2="63.57"/>
  <line class="cls-1" x1="1786" y1="63.57" x2="1882" y2="63.57"/>
  <line class="cls-1" x1="1882" y1="63.57" x2="1882" y2="932.07"/>
  <line class="cls-1" x1="1882" y1="932.07" x2="1786" y2="932.57"/>
  <line class="cls-1" x1="1607" y1="932.07" x2="1607" y2="518.07"/>
  <line class="cls-1" x1="1607" y1="518.07" x2="1786" y2="932.57"/>
  <line class="cls-1" x1="1787" y1="699.07" x2="1786" y2="64.07"/>
  <line class="cls-1" x1="1511" y1="63.57" x2="1787" y2="699.07"/>
  <line class="cls-1" x1="1786" y1="64.07" x2="1882" y2="207.07"/>
  <line class="cls-1" x1="1882" y1="207.07" x2="1786" y2="352.07"/>
  <line class="cls-1" x1="1786" y1="352.07" x2="1882" y2="524.07"/>
  <line class="cls-1" x1="1882" y1="524.07" x2="1787" y2="699.07"/>
  <line class="cls-1" x1="1787" y1="699.07" x2="1882" y2="932.07"/>
  <line class="cls-1" x1="1787" y1="699.07" x2="1786" y2="932.57"/>
  <line class="cls-1" x1="1787" y1="699.07" x2="1737.62" y2="819.45"/>
  <line class="cls-1" x1="1682.5" y1="695.07" x2="1787" y2="695.07"/>
  <line class="cls-1" x1="1682.5" y1="695.07" x2="1738.25" y2="584.32"/>
  <line class="cls-1" x1="1738.25" y1="584.32" x2="1607.75" y2="520.57"/>
  <line class="cls-1" x1="1607" y1="932.07" x2="1510.5" y2="815.07"/>
  <line class="cls-1" x1="1510.5" y1="815.07" x2="1607" y2="695.07"/>
  <line class="cls-1" x1="1607" y1="695.07" x2="1510.5" y2="524.07"/>
  <line class="cls-1" x1="1510.5" y1="524.07" x2="1635.5" y2="352.07"/>
  <line class="cls-1" x1="1607.75" y1="520.57" x2="1635.5" y2="352.07"/>
  <line class="cls-1" x1="1635.5" y1="352.07" x2="1509" y2="207.07"/>
  <line class="cls-1" x1="1509" y1="207.07" x2="1547" y2="150.07"/>
  <line class="cls-1" y1="211.07" x2="433.33" y2="211.07"/>
  <line class="cls-1" x1="2" y1="210.24" x2="220.37" y2="62.41"/>
  <line class="cls-1" x1="431.72" y1="210.64" x2="220.37" y2="62.41"/>
</svg>