<?xml version="1.0" encoding="UTF-8"?>
<svg id="Layer_1" data-name="Layer 1" xmlns="http://www.w3.org/2000/svg" viewBox="0 0 995.13 480.55">
  <defs>
    <style>
      .cls-1 {
        fill: #fff;
      }

      .cls-1, .cls-2 {
        stroke: #1d1d1b;
        stroke-linecap: round;
        stroke-miterlimit: 10;
      }

      .cls-2 {
        fill: none;
      }
    </style>
  </defs>
  <path class="cls-2" d="M100.31,174.16c0,54.06-43.75,97.81-97.81,97.81"/>
  <path class="cls-2" d="M100.31,369.77c0-54.06,43.75-97.81,97.81-97.81"/>
  <path class="cls-2" d="M100.31,369.77c0-54.06-43.75-97.81-97.81-97.81"/>
  <path class="cls-2" d="M2.5,271.97c0-54.06,43.75-97.81,97.81-97.81"/>
  <path class="cls-2" d="M2.5,271.97c0,54.06,43.75,97.81,97.81,97.81"/>
  <path class="cls-2" d="M198.11,271.97c0,54.06-43.75,97.81-97.81,97.81"/>
  <path class="cls-2" d="M98.31,3.15C98.31,57.21,54.56,100.96,.5,100.96"/>
  <path class="cls-2" d="M98.31,3.15c0,54.06,43.75,97.81,97.81,97.81"/>
  <path class="cls-2" d="M98.31,198.77c0-54.06,43.75-97.81,97.81-97.81"/>
  <path class="cls-2" d="M.5,100.96C.5,46.9,44.25,3.15,98.31,3.15"/>
  <path class="cls-2" d="M196.11,100.96C196.11,46.9,152.37,3.15,98.31,3.15"/>
  <path class="cls-2" d="M196.11,100.96c0,54.06-43.75,97.81-97.81,97.81"/>
  <path class="cls-2" d="M275.52,372.05c-50.74-54.41-50.36-137.09,.85-184.84"/>
  <path class="cls-2" d="M276.37,187.21c50.74,54.41,50.36,137.09-.85,184.84"/>
  <path class="cls-2" d="M275.52,187.89c-50.74-54.41-50.36-137.09,.85-184.84"/>
  <path class="cls-2" d="M276.37,3.05c50.74,54.41,50.36,137.09-.85,184.84"/>
  <path class="cls-2" d="M433.76,372.05c-50.74-54.41-50.36-137.09,.85-184.84"/>
  <path class="cls-2" d="M434.62,187.21c50.74,54.41,50.36,137.09-.85,184.84"/>
  <path class="cls-2" d="M433.76,187.89c-50.74-54.41-50.36-137.09,.85-184.84"/>
  <path class="cls-2" d="M434.62,3.05c50.74,54.41,50.36,137.09-.85,184.84"/>
  <path class="cls-2" d="M275.56,188.83c43.71-43.71,114.45-43.71,158.16,0"/>
  <path class="cls-2" d="M433.72,188.83c-43.71,43.71-114.45,43.71-158.16,0"/>
  <path class="cls-2" d="M544.51,371.56c-46.91-50.31-46.56-126.75,.79-170.9"/>
  <path class="cls-2" d="M545.3,200.65c46.91,50.31,46.56,126.75-.79,170.9"/>
  <path class="cls-2" d="M544.51,201.29c-46.91-50.31-46.56-126.75,.79-170.9"/>
  <path class="cls-2" d="M545.3,30.39c46.91,50.31,46.56,126.75-.79,170.9"/>
  <path class="cls-2" d="M689.81,371.56c-46.91-50.31-46.56-126.75,.79-170.9"/>
  <path class="cls-2" d="M690.6,200.65c46.91,50.31,46.56,126.75-.79,170.9"/>
  <path class="cls-2" d="M689.81,201.29c-46.91-50.31-46.56-126.75,.79-170.9"/>
  <path class="cls-2" d="M690.6,30.39c46.91,50.31,46.56,126.75-.79,170.9"/>
  <path class="cls-2" d="M544.75,202.16c40.41-40.41,105.82-40.41,146.23,0"/>
  <path class="cls-2" d="M690.98,202.16c-40.41,40.41-105.82,40.41-146.23,0"/>
  <path class="cls-2" d="M545.56,30.81c40.41-40.41,105.82-40.41,146.23,0"/>
  <path class="cls-2" d="M691.79,30.81c-40.41,40.41-105.82,40.41-146.23,0"/>
  <line class="cls-2" x1="864.3" y1="479.98" x2="860.56" y2="480.05"/>
  <path class="cls-2" d="M879.26,188.99c24.13-81.46-11.28-163.65-79.16-183.76"/>
  <path class="cls-2" d="M800.1,5.23c-24.13,81.46,11.28,163.65,79.16,183.76"/>
  <path class="cls-1" d="M800.05,372.05c-50.42-54.07-50.04-136.22,.85-183.68"/>
  <path class="cls-1" d="M800.9,188.37c50.42,54.07,50.04,136.22-.85,183.68"/>
  <path class="cls-1" d="M800.05,189.05c-50.42-54.07-50.04-136.22,.85-183.68"/>
  <path class="cls-1" d="M800.9,5.37c50.42,54.07,50.04,136.22-.85,183.68"/>
  <path class="cls-2" d="M956.22,372.05c-50.42-54.07-50.04-136.22,.85-183.68"/>
  <path class="cls-2" d="M957.07,188.37c50.42,54.07,50.04,136.22-.85,183.68"/>
  <path class="cls-2" d="M956.22,189.05c-50.42-54.07-50.04-136.22,.85-183.68"/>
  <path class="cls-1" d="M958.42,372.75c24.13-81.46-11.28-163.65-79.16-183.76"/>
  <path class="cls-1" d="M879.26,188.99c-24.13,81.46,11.28,163.65,79.16,183.76"/>
  <path class="cls-2" d="M957.07,5.37c50.42,54.07,50.04,136.22-.85,183.68"/>
</svg>